<?xml version="1.0" encoding="utf-8"?>
<!-- Generator: Adobe Illustrator 19.1.0, SVG Export Plug-In . SVG Version: 6.00 Build 0)  -->
<svg version="1.1" id="Layer_1" xmlns="http://www.w3.org/2000/svg" xmlns:xlink="http://www.w3.org/1999/xlink" x="0px" y="0px"
	 viewBox="0 0 25.6 28.4" style="enable-background:new 0 0 25.6 28.4;" xml:space="preserve">
<style type="text/css">
	.st0{fill:#FFFFFF;}
</style>
<g>
	<polygon class="st0" points="5.8,25.3 9.2,22.2 5.8,19.1 	"/>
	<path class="st0" d="M14.2,8.7h3.1c1.4-1.6,2.1-3.3,2.3-5h-3.1C16.2,5.5,15.4,7.1,14.2,8.7z"/>
	<g>
		<path class="st0" d="M23,0H2.6C1.1,0,0,1.1,0,2.6v23.3c0,1.4,1.1,2.6,2.6,2.6H23c1.4,0,2.6-1.1,2.6-2.6V2.6C25.6,1.1,24.4,0,23,0z
			 M24.1,25.8c0,0.6-0.5,1.1-1.1,1.1H2.6c-0.6,0-1.1-0.5-1.1-1.1V2.6c0-0.6,0.5-1.1,1.1-1.1H23c0.6,0,1.1,0.5,1.1,1.1V25.8z"/>
		<path class="st0" d="M17.9,12.6c-0.6-0.6-1.6-1.3-3.4-1.3c-1.9,0-3.9,0.5-5.3,1V4.3H6.4v12.3l2-0.9c0,0,3.3-1.5,6.2-1.5
			c1.4,0,1.8,0.8,1.8,1.5v8.5h2.8l0-8.5C19.2,15.4,19.1,13.9,17.9,12.6z"/>
	</g>
</g>
</svg>
